<svg xmlns="http://www.w3.org/2000/svg" viewBox="0 0 814.76 115.2"><defs><style>.cls-1{fill:#eb3157;}</style></defs><title>logo</title><g id="Layer_2" data-name="Layer 2"><g id="Layer_1-2" data-name="Layer 1"><path class="cls-1" d="M69.89,63.47c0,9.4,0,18.8,0,28.2A2.23,2.23,0,0,0,71.21,94c4.68,2.66,6.74,7.61,5.22,13.1a11.62,11.62,0,0,1-10.73,8.14,11.78,11.78,0,0,1-10.9-8c-1.46-4.72.18-10.61,5-13.28.54-.3,1.25-.37,1.45-1.18.44-1.81-.05-2.47-2-2.48-4.67,0-9.34-.06-14,0-1.55,0-2-.42-2-2,.07-9.73,0-19.46.06-29.19a2.72,2.72,0,0,0-1.53-2.8,11.26,11.26,0,0,1-5.26-12.54A11.49,11.49,0,0,1,47.8,35.33a11.32,11.32,0,0,1,5.35,21.19,2.29,2.29,0,0,0-1.29,2.33c0,7,.07,14.06,0,21.1,0,1.54.51,1.92,1.93,1.85,2-.11,4.08-.07,6.11,0,1,0,1.37-.32,1.37-1.36q0-22.87,0-45.75c0-1.53-.77-1.5-1.84-1.5q-16.06,0-32.15,0c-3.32,0-3.32,0-3.32-3.38,0-3.94,0-7.89,0-11.83,0-.75.57-1.83-.63-2.2s-1.73.45-2.28,1.37A11.08,11.08,0,0,1,5.8,21.26,11.46,11.46,0,0,1,.11,9.6,11.46,11.46,0,0,1,8.73.34,10.77,10.77,0,0,1,20.48,4.78C21.68,6.7,23,7.1,25.1,7.09,46.33,7,67.56,7.07,88.8,7,90.62,7,91,7.61,91,9.27c-.11,4.4-.07,8.81,0,13.21,0,.7-.47,1.69.64,2s1.63-.35,2.16-1.23a11.29,11.29,0,0,1,15.71-4.15,11.5,11.5,0,0,1,5.2,12,11.31,11.31,0,0,1-9.76,9,11,11,0,0,1-11.13-5.59,2.36,2.36,0,0,0-2.32-1.37c-6.57,0-13.14.07-19.72,0-1.49,0-1.88.45-1.87,1.91.06,9.47,0,18.93,0,28.4ZM57.24,24.63c7.75,0,15.51,0,23.26,0,1.45,0,2-.35,1.9-1.87a39.35,39.35,0,0,1,0-5.32c.09-1.41-.45-1.75-1.8-1.75q-23.16.06-46.32,0c-1.33,0-1.89.3-1.8,1.73a39.35,39.35,0,0,1,0,5.32c-.1,1.5.43,1.9,1.89,1.89C42,24.59,49.62,24.63,57.24,24.63Zm12.5,79.17a4.07,4.07,0,0,0-4.17-4.27,4.23,4.23,0,0,0-.11,8.45A4.12,4.12,0,0,0,69.74,103.8ZM47.62,42.5a4,4,0,0,0-4.25,4.18,4.23,4.23,0,1,0,4.25-4.18ZM11.32,15.66a4.54,4.54,0,0,0,4.26-4.34,4.37,4.37,0,0,0-4.34-4.18,4.25,4.25,0,0,0-4.12,4.18A4.35,4.35,0,0,0,11.32,15.66Zm96.46,13.23a4.27,4.27,0,0,0-4.24-4.27,4.23,4.23,0,1,0,.12,8.46A4.28,4.28,0,0,0,107.78,28.89Z"/><path class="cls-1" d="M406.24,53.61c5.35-15.18,10.4-27.46,13.92-40.15,2.78-10,10-6.85,16.3-7.53,6.5-.7,9.7,1.79,11.46,8.18a184.33,184.33,0,0,0,14,36.79Q468.45,33,475,15.14c2.95-8,13.69-12.35,21.57-8.91,3.38,1.48,2.7,3.68,1.79,6.12-8.7,23.2-17.34,46.42-26.18,69.56-3.13,8.19-10.48,3.77-16,4.7-4.44.75-7.29-1-8.73-5.8-4-13.37-8.51-26.62-13.75-42.8-5.43,14.66-10.7,26.61-14.2,39.06-2.6,9.23-8.23,9.57-16,9.9-8,.34-10.34-3.45-12.4-10-6.21-19.88-13.2-39.51-19.42-59.39-1.08-3.46-6.86-9.84,1-10.92,6.22-.86,15.63-5.39,19.21,5.53,3.69,11.27,7.22,22.59,10.88,33.86C403.34,47.67,404.24,49.21,406.24,53.61Z"/><path class="cls-1" d="M739.76,46.51c0-10.42.51-20.87-.16-31.25-.52-8.17,3.3-9.68,10.19-9.48,6.18.18,10.85,0,10.91,8.82.15,22.49.6,22.17,23.65,22.24,7.54,0,10.57-2.15,9.51-9.71-.39-2.82.32-5.8-.13-8.6C792,7.76,796.87,4.74,806.94,5.81c5.14.55,7.88,1.36,7.82,7.28-.24,22.27-.31,44.54,0,66.81.13,9.52-6.54,6.37-11.23,6.73-5,.39-10.7,1.1-9.76-7.1a55.67,55.67,0,0,0,0-6.46c0-17.31,0-17.31-16.8-17.32-16.07,0-16.06,0-16.53,22-.1,4.87,1.23,10.78-7.29,9.25-6-1.06-14.5,2.8-13.58-9.23C740.39,67.38,739.76,56.92,739.76,46.51Z"/><path class="cls-1" d="M282,45.26c0-10.43.46-20.88-.13-31.28-.55-9.58,5.74-7.72,11.33-8.06s9.72,0,9.57,7.6c-.15,7.39-3.56,17.23,1.56,21.65,5.37,4.63,15.15.83,22.95,1.56,6.53.61,9.34-1.76,8.51-8.47a78.41,78.41,0,0,1-.06-9.7c0-12.92,1.22-13.82,14.28-12.64,4.34.4,6.61,1.7,6.59,6.39-.1,22.65-.15,45.3,0,68,.06,8.62-6.16,6.24-10.66,6.34s-10.94,1.86-10.23-6.66a15.85,15.85,0,0,0,0-3.23c-.81-6.65,3.39-16.28-1.93-19.37-7.76-4.51-18.17-1.23-27.44-1.47-3.56-.09-3.71,2.69-3.73,5.3,0,4.31-.54,8.71.08,12.93,1.53,10.41-2.29,14-12.87,12.86-6.06-.65-8.12-2.25-7.92-8.27C282.31,67.56,282.05,56.41,282,45.26Z"/><path class="cls-1" d="M530.59,6.12c8.6-2.18,12.25,2.34,15.22,9.62,8.53,20.93,17.54,41.67,26.66,62.35,2.94,6.64,1.65,9-5.78,8.71-7.15-.27-14.6,1.28-16.77-8.66-.87-4-4.62-3.85-7.92-3.84-6.46,0-12.94.21-19.39-.07s-11.87,0-14.29,7.8c-1.33,4.28-17.9,6.69-21.24,3.81-2.3-2-.76-4,0-5.78C496.94,57,507,33.9,516.74,10.77,519.75,3.66,525.81,6.82,530.59,6.12Zm.82,27.48c-3.47,1.71-4.13,4.22-4.95,6.47-1.91,5.26-7.73,11.92-4.86,15.42,3.72,4.56,11.71,1.64,19,1.15Z"/><path class="cls-1" d="M170.15,87.71c-13.58-2.21-27.27-.85-40.9-.87-6.75,0-9.56-1.58-9.4-9,.46-20.85.35-41.73.05-62.59-.1-6.58,1.24-9.7,8.8-9.41,15.08.58,30.22.53,45.32,0,8.35-.29,8,4.53,8.16,10.3s-.13,9.69-7.77,9.14c-8.94-.65-18-.07-27-.19-4-.06-6.89.29-6.91,5.6s2,7,7.06,6.81c6.46-.28,13,.29,19.41-.29,8-.72,8.21,3.72,8.53,9.84.36,7-2.54,8.83-8.79,8.43a138.64,138.64,0,0,0-16.18-.11c-4.1.21-9.88-2.39-10,5.7-.16,8.81,6.14,6.13,10.59,6.32,6.82.29,13.67-.19,20.49.16,3.55.18,9.37-2.19,9.88,3.34S186,84.16,177,87.53C174.63,85.39,172.35,85.08,170.15,87.71Z"/><path class="cls-1" d="M692.32,5A39.9,39.9,0,0,1,722,16.87c2.41,2.45,9.25,6.05,4,9.84-4.71,3.38-10,12.41-18.09,4.39-5.7-5.64-12.17-8.46-20.42-7C677,26,670.6,31.88,668.77,42.24c-1.77,9.94,2.08,17.91,10.59,22.88,8.9,5.2,17.9,4.37,26.12-2.25,3-2.46,4.95-7.81,10.54-4,4.11,2.81,11.15,4.12,11.79,8.53.73,5.06-5.58,8.22-9.77,11.26-26.27,19-61.7,7.81-69.52-22C641.39,29.46,661.69,4.53,692.32,5Z"/><path class="cls-1" d="M232,4.94c12-.18,22.93,3,31.66,11.36,2.78,2.67,9.35,6.63,4,10.66-4.57,3.46-10,12.44-18.1,3.78A21,21,0,0,0,231,23.85c-10.34,1.21-17.58,6.57-20,16.85s1.1,18.66,10,24.15,17.87,4.65,26.17-1.72c6.77-5.18,15.63-4.58,20.84,1.55,3.68,4.33-.61,6.63-2.61,9-12.4,14.71-36.28,18.6-54.44,9.15-16.7-8.69-25-27.59-20.64-46.74C194.62,17.73,211.47,5.09,232,4.94Z"/><path class="cls-1" d="M605.55,6c10.41,0,20.84.3,31.24-.09,9-.34,7,5.79,7.4,10.93.46,5.6-.81,8.29-7.43,8.5-20.93.65-20.87,1-20.65,21.84.11,10.77-.33,21.56.1,32.31.31,8-4.87,7.57-10,7.38s-11.35,1.82-11.18-7.19c.28-15.08-.36-30.18.24-45.24.31-7.82-2.47-10.38-9.81-9.32-2.11.3-4.37-.29-6.45.1-10.53,2-12.84-3.23-12-12.52.47-5.1,2.26-6.88,7.24-6.77C584.71,6.17,595.13,6,605.55,6Z"/><path class="cls-1" d="M170.15,87.71c2.2-2.63,4.48-2.32,6.81-.18C174.75,90.16,172.48,90.21,170.15,87.71Z"/></g></g></svg>