<?xml version="1.0" encoding="utf-8"?>
<!-- Generator: Adobe Illustrator 23.1.1, SVG Export Plug-In . SVG Version: 6.00 Build 0)  -->
<svg version="1.1" id="Layer_1" xmlns="http://www.w3.org/2000/svg" xmlns:xlink="http://www.w3.org/1999/xlink" x="0px" y="0px"
	 viewBox="0 0 512 512" style="enable-background:new 0 0 512 512;" xml:space="preserve">
<style type="text/css">
	.st0{fill:none;stroke:#182E6E;stroke-width:32;stroke-miterlimit:10;}
	.st1{fill:none;stroke:#182E6E;stroke-width:32;stroke-linecap:round;stroke-linejoin:round;}
	.st2{fill:#182E6E;}
</style>
<title>ionicons-v5-h</title>
<path class="st0" d="M388,288c-42,0-76,34-76,76s34,76,76,76s76-34,76-76l0,0C463.9,322.1,429.9,288.1,388,288z"/>
<path class="st0" d="M124,288c-42,0-76,34-76,76s34,76,76,76s76-34,76-76l0,0C199.9,322.1,165.9,288.1,124,288z"/>
<polyline class="st1" points="256,360 256,274 192,232 272,144 312,216 368,216 "/>
<path class="st2" d="M320,136c17.6,0.1,31.9-14.2,32-31.8c0-0.1,0-0.2,0-0.3c0.2-17.4-13.8-31.7-31.2-31.9c-0.2,0-0.4,0-0.6,0
	c-17.7-0.1-32,14.2-32.1,31.9S302.3,135.9,320,136z"/>
</svg>
