<svg xmlns="http://www.w3.org/2000/svg" viewBox="0 0 527.11 527.77"><defs><style>.cls-1{fill:#020202;}.cls-2{fill:#fdfdfd;}</style></defs><title>logosvg</title><g id="Layer_2" data-name="Layer 2"><g id="Layer_1-2" data-name="Layer 1"><path class="cls-1" d="M263.58,527.77c-10.46-.41-21.6-.89-32.72-2.36a290.94,290.94,0,0,1-45.05-10,246.34,246.34,0,0,1-37.77-15,272.09,272.09,0,0,1-37.35-22.24A244.52,244.52,0,0,1,69.5,441.64a280.78,280.78,0,0,1-34.12-46.29A261.15,261.15,0,0,1,12.1,341.2,270.2,270.2,0,0,1,.6,279.49a258.7,258.7,0,0,1,8.83-86.28,270,270,0,0,1,21.19-54.4,221.43,221.43,0,0,1,17.86-29,298.19,298.19,0,0,1,33.2-38.47,238.42,238.42,0,0,1,23.91-19.74A270,270,0,0,1,220,3.51,286.82,286.82,0,0,1,252.72.24a273.2,273.2,0,0,1,62.87,4.81,258.91,258.91,0,0,1,36.49,10.19,260.68,260.68,0,0,1,46,21.14,248,248,0,0,1,27,18.38,291.87,291.87,0,0,1,24.15,21.07c10.33,10,19.07,21.27,27.67,32.71,11.12,14.8,19.93,30.92,27.39,47.77A283,283,0,0,1,518.53,198a260.5,260.5,0,0,1,7,95.18,254.47,254.47,0,0,1-8,41.9,294.69,294.69,0,0,1-18.29,48.14,223.52,223.52,0,0,1-18.85,31.63c-4.48,6.3-9.29,12.38-14.05,18.48-7.71,9.91-16.66,18.52-25.78,27a224.64,224.64,0,0,1-26,20.32,279.14,279.14,0,0,1-37.13,21.55,260.49,260.49,0,0,1-60.5,20.17c-16.06,3.31-32.26,5.37-48.7,5.14C266.87,527.5,265.57,527.65,263.58,527.77ZM4.38,271c1.38,65,26.83,129.25,80.69,180.13,53.63,50.66,118.41,74.61,192.57,71.51,129-5.41,249.22-111.94,244.7-267.5C520.31,185.29,494,124.54,443.15,76,390.5,25.78,326.76,2.11,254,4.59,117.6,9.26,6.05,116.5,4.38,271Z"/><path class="cls-2" d="M4.38,271C6.05,116.5,117.6,9.26,254,4.59,326.76,2.11,390.5,25.78,443.15,76c50.81,48.5,77.16,109.25,79.19,179.09,4.52,155.56-115.73,262.09-244.7,267.5-74.16,3.1-138.94-20.85-192.57-71.51C31.21,400.24,5.76,336,4.38,271ZM265.53,463c3.29-.09,8-.25,12.72-.4,12-.37,23.61-2.91,35.24-5.44,7-1.53,13.73-4.16,20.49-6.61a163,163,0,0,0,26-11.72,207.11,207.11,0,0,0,65.95-59c7.3-10.06,13-21.09,18.19-32.32a200.62,200.62,0,0,0,16.58-57.28,193.24,193.24,0,0,0-1.71-62.4A200.05,200.05,0,0,0,443,178.69a212.94,212.94,0,0,0-25.85-41.88,164.42,164.42,0,0,0-23-23.92,251.5,251.5,0,0,0-22.81-17.1,195.7,195.7,0,0,0-48.11-22.91c-16.87-5.41-34.32-7.86-52-8.73a203.26,203.26,0,0,0-47.67,3.68c-18.32,3.44-35.57,9.93-52,18.44a202.1,202.1,0,0,0-30.18,19.55,191.1,191.1,0,0,0-20.54,18.05,189.47,189.47,0,0,0-27.44,36.44,197.76,197.76,0,0,0-18.87,42.76,212.08,212.08,0,0,0-7.78,35.7A190.09,190.09,0,0,0,67,288c2.52,18.43,6.89,36.31,14.35,53.36,8,18.28,17.7,35.49,30.8,50.74a201.1,201.1,0,0,0,63.1,49.67,202.28,202.28,0,0,0,31.52,12.8A193.2,193.2,0,0,0,265.53,463ZM54.9,336.84c-6.61,4.21-12.79,8.91-19.35,13-2,1.24-2.39,2.34-1.54,4.42a43.71,43.71,0,0,1,2.36,7.38c.5,2.34,1.6,2.36,3.49,1.72q13.49-4.62,27-9.08c6-2,5.92-1.92,3.9-7.93-.53-1.59-1.12-2-2.79-1.39-3.88,1.45-7.85,2.69-11.79,4-2.68.87-5.38,1.66-8.15,2.51-.07-1.22.7-1.36,1.19-1.7,4.45-3,9-5.85,13.34-9,6.24-4.5,5.47-2.57,3.46-9.31-.58-1.94-1.43-2.65-3.49-2.51-7,.45-14,.72-21,1.09-.65,0-1-.21-1.27-1,5.56-1.71,11.13-3.32,16.63-5.13,6.2-2,6.14-2.1,3.76-8.23-.55-1.43-1.18-1.8-2.69-1.29q-15.6,5.25-31.25,10.34c-1.59.52-2,1.27-1.51,2.82.92,2.61,1.82,5.24,2.62,7.89a2.52,2.52,0,0,0,3,2c4.42-.29,8.85-.54,13.27-.59C47.7,336.79,51.23,335.73,54.9,336.84ZM106.53,92.42c5.79,1,11.32,3,17,4.31,5.22,1.23,10.66,4.5,15.39-1.51,1.28-1.63,1.4-2.3.09-3.8-6.22-7.07-12.33-14.26-18.48-21.4-4.35-5-4.33-5-9.34-.47-1.11,1-1.35,1.76-.26,3,2.55,2.8,5,5.66,7.46,8.58,2.08,2.52,4.87,4.46,6.63,7.72a7.16,7.16,0,0,1-1.44-.11C116,86.1,108.17,84.22,100.44,82c-1.84-.53-3.37-.53-4.81.94A31,31,0,0,1,92,86c-1.44,1.1-1.38,2-.19,3.38,6.38,7.2,12.65,14.48,19,21.7,4.17,4.74,4.16,4.67,8.89.24,1.31-1.22,1.36-2,.13-3.37-3.74-4.08-7.36-8.28-11-12.45C108,94.55,106.6,94.05,106.53,92.42Zm364,280.84c-8.14.67-15.47,1.53-22.82,1.78-3.93.14-6.52,1.18-8.21,4.95s-2,3.62,1.76,5.73c7.63,4.32,15.29,8.6,22.85,13,5.74,3.38,5.64,3.46,8.9-2.39.84-1.52.82-2.37-.88-3.25-4.5-2.35-8.91-4.87-13.34-7.36a21.38,21.38,0,0,1-4.84-3.2c.87-.16,1.29-.28,1.71-.32,6.9-.62,13.82-1,20.72-1.27,4.27-.2,7-1.35,8.41-5.37a3.68,3.68,0,0,1,.55-1c1.34-1.7.94-2.78-.93-3.87-8-4.72-16-9.55-24-14.39-5.74-3.48-5.67-3.48-9.05,2.23-.9,1.52-.9,2.37.75,3.27,4,2.23,8,4.57,12,6.93A30.92,30.92,0,0,1,470.5,373.26ZM165.64,49a14.92,14.92,0,0,0,1.29,7c2.5,6.69,6.9,11.48,14.25,12.41,7.66,1,14.55-.77,19.14-7.7,1.09-1.64,1.72-1.44,2.72,0,1.72,2.48,3.46.09,5.17-.15,1.11-.16,1-1.12.76-2-1.68-5-3.42-9.95-5-15-.59-1.79-1.53-1.95-3.14-1.37-3.65,1.3-7.37,2.42-11,3.66-3.48,1.17-3.29,1.14-2.29,4.68.73,2.57,1.92,2.93,4.1,1.84a13.48,13.48,0,0,1,3.11-1.13c.82-.18,1.73-1.16,2.53-.18.65.78.28,1.8,0,2.67-1.14,4.17-5.64,7.28-10.65,7.43s-9.23-3.14-11.12-8.45-.74-10.69,3.17-13.61c3.47-2.6,7.63-4,11.34-1.57,3,2,5.22,1.69,8.07.51,3.9-1.62,4-2.15.78-4.92A13.39,13.39,0,0,0,197.28,32c-5.57-3.51-11.47-3-17.39-1.24C171,33.31,165.69,40,165.64,49ZM50.9,257.48c1.61.45,2.39-.69,2.45-2.71a15.28,15.28,0,0,1,.25-3c.6-2.58-.68-3.19-2.94-3.33-3-.19-6-.72-9.08-1-1.5-.14-1.87-1-1.72-2.25.29-2.58.52-5.16.91-7.72.5-3.3,2.16-4.65,5.52-4.51,2,.08,4,.41,6.07.53s3.59-.51,3.68-3c.07-1.84.43-3.67.56-5.51.1-1.35-.16-2.23-1.89-1.32a9,9,0,0,1-5.11.59c-3.56-.28-7.4-1.42-10.29,2.18-.93,1.16-1.59,0-2-.86A7.59,7.59,0,0,0,32,221.14c-6.82-1.64-12.48,2.48-13.55,10.16-.91,6.5-1.4,13.06-2.34,19.55-.37,2.57.8,3,2.81,3.17,2.94.23,5.88.55,8.82.87Zm431.17,54.95c-11.89-.24-19.31,9.15-19.43,21.41-.12,12,8.3,19.1,20.3,19.6,10.46.44,18.88-9.48,18.88-21.57A19.62,19.62,0,0,0,482.07,312.43ZM237.7,17.83a17.67,17.67,0,0,0-5.54.6c-7.36,1.46-12.86,5.38-14.95,12.79s-.65,14.44,4.85,20.31c7.09,7.56,23.94,6.1,30.05-1.67,5.49-7,5.91-14.31,2.68-21.87C251.69,20.75,245.17,18.21,237.7,17.83Zm218.93,98.42c-.12-10.84-10.16-21-20.68-21-10.35,0-20.3,9.7-20.08,19.49.22,9.57,9.75,21.32,20.86,20.95C447.42,135.35,456.75,126.46,456.63,116.25ZM22,274c-4.46.13-4.63.24-4.17,4.48.9,8.18,2,16.34,2.84,24.53.22,2,1.08,2.23,2.93,2q15.94-2,31.92-3.67c2.26-.24,2.5-1.23,2.26-3.08-1.06-8.17-2.05-16.34-3.05-24.51-.54-4.39-.51-4.26-5.15-3.75-1.93.22-2.23.93-2,2.63.63,4.67,1,9.37,1.68,14,.91,6.68,1,6.59-5.9,6.92-2,.1-2.52-.66-2.69-2.46-.46-4.88-1.12-9.73-1.64-14.61-.18-1.69-.69-3-2.69-2.35-1.69.59-4.91-.82-4.24,3.23.79,4.84,1.12,9.75,1.87,14.59.37,2.4-.91,3.09-2.72,3s-4.26,1.59-4.64-2c-.6-5.52-1.4-11-2-16.53C24.43,274.55,23.89,273.45,22,274ZM403.81,62.13c-8.64,0-13.08,7.75-8.79,15.26a58.45,58.45,0,0,0,4.8,6.78c1.68,2.18,3.65,4.21,4.43,7a3.34,3.34,0,0,1-3.2,4.35c-5.07.12-10.85-6.93-9.75-11.88.15-.69.69-1.44,0-2.09-1.62-1.51-3.26-3-5-4.44a1.17,1.17,0,0,0-2,.48c-1,2.38-2.11,4.73-1.6,7.46,1.71,9.12,8.24,13.82,16,17.27a11.36,11.36,0,0,0,8.14,0,9.53,9.53,0,0,0,6.18-11.46c-.94-3.39-3.09-6.07-5.11-8.82-1.75-2.38-3.63-4.68-5.23-7.16s-.42-5.1,2.33-5.26c4.09-.24,9.82,5.18,9,9.14-.65,3.1.66,4.46,2.74,6.06,3.45,2.67,4.17,2.52,5.33-1.79a9.48,9.48,0,0,0,.31-2.18C422.67,72.13,412.66,62.09,403.81,62.13Zm-58.09,1.12a9,9,0,0,0,1,4.83c2.89,6.16,14.09,12.66,20.88,12.23,4.87-.31,8.05-2.83,9.92-7.21,1.68-3.91-.11-7-2.4-9.92a17.56,17.56,0,0,0-2.07-2.24c-3.11-2.76-6.26-5.46-9.35-8.23A3.16,3.16,0,0,1,362.7,49a3.73,3.73,0,0,1,3.36-2.1c4.12-.44,9.62,4.38,9.64,8.48a2.8,2.8,0,0,0,1.85,3,21.51,21.51,0,0,1,3.15,1.74c2.11,1.38,3,.39,3.39-1.66A11.89,11.89,0,0,0,381.91,49c-3.6-5-8.83-7.56-14.62-8.8s-10.44,1.1-12.79,5.54c-2,3.81-.84,8.21,3.51,12.35,3.08,2.92,6.32,5.67,9.49,8.51,1.26,1.14,1.92,2.5,1.21,4.21s-2.36,2.2-4.13,2.06a14.43,14.43,0,0,1-7.05-3c-2.35-1.65-3.76-3.88-3.13-6.87a1.59,1.59,0,0,0-.94-2c-1-.54-1.95-1.06-2.92-1.61-3.78-2.16-4.65-1.66-4.82,2.81C345.71,62.42,345.72,62.7,345.72,63.25ZM84.46,153.05c.26-.28.58-.61.87-1,1.19-1.4,2.35-2.82,3.55-4.21,2.37-2.73,2.34-3.19-.42-5.34-2.32-1.81-2.61-3.56-.86-5.92,2-2.67,4.05-5.28,6.05-7.94A2.65,2.65,0,0,1,97,127.63c6,1.78,6,1.71,9.85-3.35l.36-.42c1.42-1.53,1.22-2.3-.94-2.9-9.69-2.71-19.34-5.56-29-8.36-7.12-2.07-7.08-2-11.56,3.89-1.15,1.53-1.43,2.83-.28,4.5,1.25,1.83,2.28,3.8,3.37,5.73q7,12.3,13.94,24.6C83.11,152,83.31,152.92,84.46,153.05Zm-.24,233.4c-1.38.41-2.1-.49-2.74-1.61-1.61-2.81-3.12-5.68-4.9-8.37-1.26-1.9-1.54-3.67.13-5.23,3.39-3.18,2.93-6.32.26-9.58a3.49,3.49,0,0,1-.44-.71c-1.09-2.51-2.06-2.08-3.47-.11q-8.58,11.94-17.36,23.73c-4.8,6.43-4.82,6.33-.67,13.3a3,3,0,0,0,3.61,1.58c6.37-1.12,12.75-2.13,19.13-3.15,4.93-.79,9.86-1.52,14.79-2.31,3-.49,2.86-.82,1.56-3.53-2-4.16-4.65-6.13-9.24-4.11A3.08,3.08,0,0,1,84.22,386.45ZM334.73,63.25c-.61-5.29-1.18-10.16-1.72-15s-1.06-9.74-1.57-14.61c-.83-8-.84-7.91-8.65-9.91a2.77,2.77,0,0,0-3.31,1.16c-7.25,9.22-14.49,18.45-21.82,27.62-1.49,1.86-.83,2.27,1.08,2.81,6.48,1.79,6.49,1.88,10.48-3.37.78-1,1.44-1.43,2.75-1,3.51,1.1,7,2.09,10.61,3,1.45.38,2.34,1,2.18,2.63-.52,4.92,2,7.18,6.6,7.68a3.7,3.7,0,0,1,1.06.32C334.25,65.38,335,64.86,334.73,63.25ZM507.11,226.88c-.4-2.62-.79-4.9-1.08-7.19-.19-1.51-.92-2.12-2.45-2.45-6.58-1.42-13.14-3-19.68-4.56-4.93-1.2-9.82-2.55-14.75-3.77-.87-.22-2-.78-2.15,1.06-.35,5.87,1.25,8.08,7,9,1.57.25,2.29.83,2.5,2.36.5,3.75,1,7.5,1.64,11.24.25,1.52-.27,2.3-1.66,3-5.37,2.74-5.34,2.79-4.25,8.71a10.45,10.45,0,0,1,.17,1.1c.06,1.86.8,2.24,2.44,1.28q15.21-8.83,30.48-17.6C506.35,228.51,507.32,227.94,507.11,226.88ZM75.86,168.39c.23-4-1.46-8.12-4.69-11.61-1.9-2.06-2.54-1.95-3.61.54-.59,1.36-1.08,2.76-1.73,4.09a2.31,2.31,0,0,0,.55,3.16c4.86,4.29,1.45,13.31-3.68,15.22s-9.22,0-13.32-2.46a10.25,10.25,0,0,1-4.79-11.22c.88-4.3,3.82-6.94,8.65-7.64A1.92,1.92,0,0,0,55,157.36c.8-1.87,1.56-3.76,2.41-5.6.51-1.13.28-1.6-1-1.85a13.78,13.78,0,0,0-8.38,1c-5.12,2.27-7.82,6.59-9.71,11.56-2.71,7.12-2.38,13.95,2.86,19.75,5.42,6,12.45,8.83,20.47,7.06C70.16,187.43,76,178.67,75.86,168.39Zm409.7-10.78a22.71,22.71,0,0,0-2.78-9.78c-4-8.15-9.7-11.24-17-11-9,.33-16.66,6.12-18.95,13.8-2.41,8,.68,14.69,5.7,20.68,2.88,3.43,6.93,4.86,11.29,5.19,1.57.13,3.71.34,4.64-1s-.8-2.61-1.39-3.91a22,22,0,0,1-1.12-2.22c-.4-1.28-1.13-1.61-2.46-1.59-6.06.11-10.46-5.44-9.6-11.46s7.87-10,12.85-10.62a9.35,9.35,0,0,1,9.36,4.23c2.06,3.07,3.1,6.5.86,9.87a4,4,0,0,0,0,5,20.18,20.18,0,0,1,1.57,3.24c.82,2,1.81,1.76,3,.35A16.08,16.08,0,0,0,485.56,157.61Zm26,106h-.19c0-4.8-.06-9.61,0-14.42,0-1.63-.41-2.47-2.17-2.28a8.61,8.61,0,0,1-2.21,0c-2.07-.31-2.58.71-2.5,2.54.11,2.4,0,4.82.1,7.21.12,2.1-.8,2.74-2.79,2.7-7-.12-14.05-.15-21.07-.21-6.52-.05-6.48,0-6.54,6.6,0,1.62.38,2.32,2.15,2.31,8.39,0,16.78.05,25.17.09,2,0,3.33.53,3.09,3-.2,2.1.15,4.25.07,6.37-.06,1.79.05,3.12,2.42,2.84,2-.24,4.63.82,4.48-2.95C511.46,272.81,511.6,268.19,511.6,263.58ZM62.23,206.36c.33-1.7-.13-2.12-1.44-2.44q-14.05-3.49-28-7.25C26.53,195,26.69,195,25,201.19c-.65,2.36.3,2.84,2.17,3.31,9,2.25,18,4.59,27,6.89,7.52,1.92,6,3.53,8.12-5.22C62.29,206.08,62.31,206,62.23,206.36Zm437.41-18.64c-.59-1.87-1.24-3.7-1.72-5.57-.36-1.42-1.08-1.76-2.41-1.31q-15.83,5.32-31.68,10.61a1.49,1.49,0,0,0-1.16,2.05c1.44,6.73,1.92,7,8.18,4.73.34-.13.69-.25,1-.36l25.49-8.27C498.36,189.28,499.69,189.31,499.64,187.72Zm9,107.66c.56-2.49-1.6-2.14-3-2.36-9.29-1.53-18.6-3-27.9-4.43-5.74-.9-5.63-.89-6.48,5-.33,2.28.28,3,2.55,3.34q14,1.9,27.92,4.18C508.13,302.08,508.4,302,508.67,295.38Z"/><path class="cls-1" d="M265.53,463a193.2,193.2,0,0,1-58.75-8.4,202.28,202.28,0,0,1-31.52-12.8,201.1,201.1,0,0,1-63.1-49.67c-13.1-15.25-22.8-32.46-30.8-50.74C73.9,324.32,69.53,306.44,67,288a190.09,190.09,0,0,1-.31-49.24,212.08,212.08,0,0,1,7.78-35.7,197.76,197.76,0,0,1,18.87-42.76,189.47,189.47,0,0,1,27.44-36.44,191.1,191.1,0,0,1,20.54-18.05,202.1,202.1,0,0,1,30.18-19.55c16.45-8.51,33.7-15,52-18.44a203.26,203.26,0,0,1,47.67-3.68c17.69.87,35.14,3.32,52,8.73a195.7,195.7,0,0,1,48.11,22.91,251.5,251.5,0,0,1,22.81,17.1,164.42,164.42,0,0,1,23,23.92A212.94,212.94,0,0,1,443,178.69,200.05,200.05,0,0,1,459,227.81a193.24,193.24,0,0,1,1.71,62.4,200.62,200.62,0,0,1-16.58,57.28c-5.23,11.23-10.89,22.26-18.19,32.32a207.11,207.11,0,0,1-65.95,59,163,163,0,0,1-26,11.72c-6.76,2.45-13.46,5.08-20.49,6.61-11.63,2.53-23.25,5.07-35.24,5.44C273.53,462.73,268.82,462.89,265.53,463ZM206.12,281.56h-.2q0,15,0,30-.07,57.93-.17,115.85c0,5.57,0,5.54,5.16,7.3,16,5.44,32.63,7.68,49.49,8.26a188.1,188.1,0,0,0,24.08-1.1,168.56,168.56,0,0,0,35.12-7.5c2.75-.87,3.48-2.15,3.45-4.88-.17-12.58-.16-25.17-.13-37.76,0-23,0-46,.32-69.06,0-2.93-.9-3.06-3.15-3.06-12.78,0-25.56.22-38.32-.15-10-.28-20.06-.11-30.09-.44-1.69-.06-3,.24-3.08,2.23-.07,5.18-.07,10.36-.09,15.54,0,1.06.32,1.71,1.59,1.73,5.82.07,11.64.25,17.46.32,6.44.07,12.88.08,19.32.09,3.6,0,7.2.22,10.82-.13,6.78-.65,6.78-.12,6.83,5.43.1,12.76.06,25.53.05,38.3,0,7.47-.06,14.94-.08,22.4,0,4.35.07,8.71-.07,13.05,0,1.17.34,2.68-1.85,3.08-8.25,1.53-16.48,3-24.87,3.76-16.55,1.43-32.81-.2-49-3.34-2.85-.55-3.57-1.72-3.56-4.55.15-44.44.19-88.88.6-133.32.24-26.11,0-52.23.11-78.34.11-31.26-.31-62.53.48-93.79.15-6,.05-6,5-6.89,13.2-2.32,26.45-3.83,39.92-3a194.42,194.42,0,0,1,30.94,4.5c2.66.61,3.43,1.82,3.41,4.54-.18,23-.15,45.93-.28,68.89,0,2.06.73,2.48,2.58,2.45,4.35-.07,8.7,0,13.05.11,1.92.06,2.3-.75,2.28-2.49-.1-7.93-.14-15.87-.07-23.8.17-18.37.17-36.74-.2-55.11-.13-6.42-.05-6.46-6.06-8.52a158.75,158.75,0,0,0-39-7.81,181.36,181.36,0,0,0-27.67-.28A162.27,162.27,0,0,0,209.85,92c-2.51.85-3.25,1.84-3.25,4.38,0,12.75-.16,25.5-.21,38.24-.11,25.09.07,50.18-.21,75.27C205.91,233.78,206.12,257.67,206.12,281.56ZM331.93,97.41c-.18,12.21-.19,24-.27,35.69-.26,37.69-.19,75.38-.23,113.07q-.1,73.22-.18,146.41,0,17.37-.08,34.73c0,2.12.56,2.89,2.71,1.83,4.55-2.25,9.14-4.42,13.73-6.57a3.35,3.35,0,0,0,1.95-3.38c0-13.85,0-27.71,0-41.56q.11-36.75.25-73.51c0-9.24.23-18.48.2-27.71,0-2.4.84-3,3.1-3,5,.16,10,.08,15,.11,17.78.12,35.56.29,53.34.32,2.38,0,2.72.94,2.67,2.95a75.56,75.56,0,0,1-1,8.5A151.93,151.93,0,0,1,403.8,343c-1,1.74-.71,2.61.9,3.53,3.77,2.15,7.58,4.26,11.2,6.63,1.68,1.1,2.27.67,3.14-.85,2.87-5,5.33-10.3,7.8-15.52,7.78-16.41,12.22-33.86,14.48-51.83a173.38,173.38,0,0,0-1.86-53.88,185.91,185.91,0,0,0-14.93-44.83,182.12,182.12,0,0,0-28.69-43.63,165.38,165.38,0,0,0-46.08-36.44C344,103.1,338.14,100.17,331.93,97.41ZM180.82,347.09h-.2c0,24,0,48-.06,71.94,0,2.42.77,3.73,2.93,4.64,3.66,1.53,7.26,3.2,10.86,4.88,2.88,1.35,3.08,1.24,3.07-1.86,0-15.65-.14-31.3,0-46.95s.07-31.27.22-46.9c.1-10.58.22-21.18,0-31.77-.23-10,.27-20.09.28-30.14,0-17.35-.08-34.7-.12-52.05q0-18.94,0-37.89c0-13.23.13-26.45.07-39.68-.07-14.16.39-28.32-.22-42.48-.08-2-.43-2.42-2.38-1.56-13.47,5.92-26.43,12.7-38.28,21.51a168.65,168.65,0,0,0-25.06,22.67A182.4,182.4,0,0,0,100,191.56a178.92,178.92,0,0,0-13.26,46.8,160.41,160.41,0,0,0-1.85,22.94,186.66,186.66,0,0,0,8.93,56.79c3.58,11,8.55,21.25,13.6,31.55,1,1.95,2,1.94,3.72.91,3.22-2,6.5-3.9,9.81-5.76s3.46-2,1.56-5.46a161,161,0,0,1-14.44-36.54,164.36,164.36,0,0,1-4.61-27.59c-.32-3.72.07-3.81,3.67-4.08,3.05-.23,6.07.05,9.1.06,20.35.06,40.7,0,61.05,0,3.34,0,3.54.22,3.54,3.63Z"/><path class="cls-1" d="M54.9,336.84c-3.67-1.11-7.2,0-10.75,0-4.42.05-8.85.3-13.27.59a2.52,2.52,0,0,1-3-2c-.8-2.65-1.7-5.28-2.62-7.89-.54-1.55-.08-2.3,1.51-2.82Q42.4,319.62,58,314.36c1.51-.51,2.14-.14,2.69,1.29,2.38,6.13,2.44,6.19-3.76,8.23-5.5,1.81-11.07,3.42-16.63,5.13.28.83.62,1.07,1.27,1,7-.37,14-.64,21-1.09,2.06-.14,2.91.57,3.49,2.51,2,6.74,2.78,4.81-3.46,9.31-4.35,3.13-8.89,6-13.34,9-.49.34-1.26.48-1.19,1.7,2.77-.85,5.47-1.64,8.15-2.51,3.94-1.28,7.91-2.52,11.79-4,1.67-.62,2.26-.2,2.79,1.39,2,6,2,5.95-3.9,7.93q-13.53,4.47-27,9.08c-1.89.64-3,.62-3.49-1.72A43.71,43.71,0,0,0,34,354.28c-.85-2.08-.46-3.18,1.54-4.42C42.11,345.75,48.29,341.05,54.9,336.84Z"/><path class="cls-1" d="M106.53,92.42c.07,1.63,1.48,2.13,2.31,3.07,3.65,4.17,7.27,8.37,11,12.45,1.23,1.34,1.18,2.15-.13,3.37-4.73,4.43-4.72,4.5-8.89-.24-6.35-7.22-12.62-14.5-19-21.7C90.64,88,90.58,87.09,92,86a31,31,0,0,0,3.61-3c1.44-1.47,3-1.47,4.81-.94,7.73,2.2,15.54,4.08,23.15,6.68a7.16,7.16,0,0,0,1.44.11c-1.76-3.26-4.55-5.2-6.63-7.72-2.41-2.92-4.91-5.78-7.46-8.58-1.09-1.2-.85-2,.26-3,5-4.54,5-4.57,9.34.47,6.15,7.14,12.26,14.33,18.48,21.4,1.31,1.5,1.19,2.17-.09,3.8-4.73,6-10.17,2.74-15.39,1.51C117.85,95.4,112.32,93.4,106.53,92.42Z"/><path class="cls-1" d="M470.5,373.26a30.92,30.92,0,0,0-6.45-4.44c-4-2.36-7.94-4.7-12-6.93-1.65-.9-1.65-1.75-.75-3.27,3.38-5.71,3.31-5.71,9.05-2.23,8,4.84,16,9.67,24,14.39,1.87,1.09,2.27,2.17.93,3.87a3.68,3.68,0,0,0-.55,1c-1.4,4-4.14,5.17-8.41,5.37-6.9.31-13.82.65-20.72,1.27-.42,0-.84.16-1.71.32a21.38,21.38,0,0,0,4.84,3.2c4.43,2.49,8.84,5,13.34,7.36,1.7.88,1.72,1.73.88,3.25-3.26,5.85-3.16,5.77-8.9,2.39-7.56-4.45-15.22-8.73-22.85-13-3.71-2.11-3.44-2-1.76-5.73s4.28-4.81,8.21-4.95C455,374.79,462.36,373.93,470.5,373.26Z"/><path class="cls-1" d="M165.64,49c.05-9,5.34-15.66,14.25-18.24,5.92-1.72,11.82-2.27,17.39,1.24a13.39,13.39,0,0,1,1.55,1.17c3.27,2.77,3.12,3.3-.78,4.92-2.85,1.18-5.09,1.47-8.07-.51-3.71-2.47-7.87-1-11.34,1.57-3.91,2.92-5.08,8.22-3.17,13.61s6.21,8.6,11.12,8.45,9.51-3.26,10.65-7.43c.24-.87.61-1.89,0-2.67-.8-1-1.71,0-2.53.18a13.48,13.48,0,0,0-3.11,1.13c-2.18,1.09-3.37.73-4.1-1.84-1-3.54-1.19-3.51,2.29-4.68,3.67-1.24,7.39-2.36,11-3.66,1.61-.58,2.55-.42,3.14,1.37,1.62,5,3.36,10,5,15,.29.86.35,1.82-.76,2-1.71.24-3.45,2.63-5.17.15-1-1.45-1.63-1.65-2.72,0-4.59,6.93-11.48,8.66-19.14,7.7-7.35-.93-11.75-5.72-14.25-12.41A14.92,14.92,0,0,1,165.64,49Z"/><path class="cls-1" d="M50.9,257.48l-23.19-2.59c-2.94-.32-5.88-.64-8.82-.87-2-.17-3.18-.6-2.81-3.17.94-6.49,1.43-13,2.34-19.55,1.07-7.68,6.73-11.8,13.55-10.16a7.59,7.59,0,0,1,5.36,4.39c.39.84,1.05,2,2,.86,2.89-3.6,6.73-2.46,10.29-2.18a9,9,0,0,0,5.11-.59c1.73-.91,2,0,1.89,1.32-.13,1.84-.49,3.67-.56,5.51-.09,2.49-1.59,3.12-3.68,3s-4-.45-6.07-.53c-3.36-.14-5,1.21-5.52,4.51-.39,2.56-.62,5.14-.91,7.72-.15,1.28.22,2.11,1.72,2.25,3,.28,6,.81,9.08,1,2.26.14,3.54.75,2.94,3.33a15.28,15.28,0,0,0-.25,3C53.29,256.79,52.51,257.93,50.9,257.48ZM34,236.44v-2c0-2.34-1-3.91-3.4-4.29-2.69-.43-4.88.7-5.34,3.16-.65,3.44-.93,6.95-1.35,10.43-.13,1.08.22,1.81,1.42,1.92,1.84.17,3.68.33,5.51.58,1.68.23,2.34-.56,2.46-2.14C33.52,241.43,33.8,238.76,34,236.44Z"/><path class="cls-1" d="M482.07,312.43a19.62,19.62,0,0,1,19.75,19.44c0,12.09-8.42,22-18.88,21.57-12-.5-20.42-7.58-20.3-19.6C462.76,321.58,470.18,312.19,482.07,312.43Zm-1.51,9.32c-5-.06-9,2.43-10.25,6.45-1.8,5.6-.39,10.08,4.06,13.21a18.31,18.31,0,0,0,8.84,2.91,10.9,10.9,0,0,0,11-6.89,10.39,10.39,0,0,0-3.54-12.37A16.67,16.67,0,0,0,480.56,321.75Z"/><path class="cls-1" d="M237.7,17.83c7.47.38,14,2.92,17.09,10.16,3.23,7.56,2.81,14.89-2.68,21.87-6.11,7.77-23,9.23-30.05,1.67-5.5-5.87-7-12.78-4.85-20.31s7.59-11.33,14.95-12.79A17.67,17.67,0,0,1,237.7,17.83Zm9.79,20.38a17.9,17.9,0,0,0-.77-5.75c-1.26-5.16-6.8-8.4-11.84-7.68-9,1.27-10.79,10.36-8.4,17.18,1.89,5.42,6.58,8.32,12.07,7.45S247.49,44.38,247.49,38.21Z"/><path class="cls-1" d="M456.63,116.25c.12,10.21-9.21,19.1-19.9,19.45-11.11.37-20.64-11.38-20.86-20.95C415.65,105,425.6,95.29,436,95.26,446.47,95.22,456.51,105.41,456.63,116.25Zm-32.56.21A11,11,0,0,0,435,127.32c6.59,0,14-7.18,13.91-13.4-.07-5.21-5.6-10.49-11-10.5C431.34,103.4,424,110.31,424.07,116.46Z"/><path class="cls-1" d="M22,274c1.9-.52,2.44.58,2.63,2.52.57,5.52,1.37,11,2,16.53.38,3.55,2.95,1.9,4.64,2s3.09-.62,2.72-3c-.75-4.84-1.08-9.75-1.87-14.59-.67-4.05,2.55-2.64,4.24-3.23,2-.69,2.51.66,2.69,2.35.52,4.88,1.18,9.73,1.64,14.61.17,1.8.65,2.56,2.69,2.46,6.86-.33,6.81-.24,5.9-6.92-.64-4.67-1.05-9.37-1.68-14-.22-1.7.08-2.41,2-2.63,4.64-.51,4.61-.64,5.15,3.75,1,8.17,2,16.34,3.05,24.51.24,1.85,0,2.84-2.26,3.08Q39.53,303,23.59,305c-1.85.23-2.71,0-2.93-2-.88-8.19-1.94-16.35-2.84-24.53C17.36,274.21,17.53,274.1,22,274Z"/><path class="cls-1" d="M403.81,62.13c8.85,0,18.86,10,18.61,18.69a9.48,9.48,0,0,1-.31,2.18c-1.16,4.31-1.88,4.46-5.33,1.79-2.08-1.6-3.39-3-2.74-6.06.82-4-4.91-9.38-9-9.14-2.75.16-4,2.7-2.33,5.26s3.48,4.78,5.23,7.16c2,2.75,4.17,5.43,5.11,8.82a9.53,9.53,0,0,1-6.18,11.46,11.36,11.36,0,0,1-8.14,0c-7.78-3.45-14.31-8.15-16-17.27-.51-2.73.61-5.08,1.6-7.46a1.17,1.17,0,0,1,2-.48c1.69,1.43,3.33,2.93,5,4.44.7.65.16,1.4,0,2.09-1.1,5,4.68,12,9.75,11.88a3.34,3.34,0,0,0,3.2-4.35c-.78-2.75-2.75-4.78-4.43-7a58.45,58.45,0,0,1-4.8-6.78C390.73,69.88,395.17,62.16,403.81,62.13Z"/><path class="cls-1" d="M345.72,63.25c0-.55,0-.83,0-1.1.17-4.47,1-5,4.82-2.81,1,.55,1.95,1.07,2.92,1.61a1.59,1.59,0,0,1,.94,2c-.63,3,.78,5.22,3.13,6.87a14.43,14.43,0,0,0,7.05,3c1.77.14,3.36-.21,4.13-2.06s.05-3.07-1.21-4.21c-3.17-2.84-6.41-5.59-9.49-8.51-4.35-4.14-5.53-8.54-3.51-12.35,2.35-4.44,7.12-6.75,12.79-5.54s11,3.77,14.62,8.8a11.89,11.89,0,0,1,2.18,9.44c-.39,2.05-1.28,3-3.39,1.66a21.51,21.51,0,0,0-3.15-1.74,2.8,2.8,0,0,1-1.85-3c0-4.1-5.52-8.92-9.64-8.48A3.73,3.73,0,0,0,362.7,49a3.16,3.16,0,0,0,1.05,3.75c3.09,2.77,6.24,5.47,9.35,8.23a17.56,17.56,0,0,1,2.07,2.24c2.29,2.93,4.08,6,2.4,9.92-1.87,4.38-5.05,6.9-9.92,7.21-6.79.43-18-6.07-20.88-12.23A9,9,0,0,1,345.72,63.25Z"/><path class="cls-1" d="M84.46,153.05c-1.15-.13-1.35-1.05-1.74-1.73q-7-12.28-13.94-24.6c-1.09-1.93-2.12-3.9-3.37-5.73-1.15-1.67-.87-3,.28-4.5,4.48-5.94,4.44-6,11.56-3.89,9.66,2.8,19.31,5.65,29,8.36,2.16.6,2.36,1.37.94,2.9l-.36.42c-3.88,5.06-3.9,5.13-9.85,3.35a2.65,2.65,0,0,0-3.33,1.06c-2,2.66-4.07,5.27-6.05,7.94-1.75,2.36-1.46,4.11.86,5.92,2.76,2.15,2.79,2.61.42,5.34-1.2,1.39-2.36,2.81-3.55,4.21C85,152.44,84.72,152.77,84.46,153.05Zm-8.91-31.61c.44,2.33,1.76,3.8,2.76,5.4,1.1,1.76,1.82,4.88,3.73,4.76,2.08-.14,2.93-3.26,4.4-5a2.42,2.42,0,0,0,.4-.72.88.88,0,0,0-.56-1.32C82.8,123.5,79.43,122.05,75.55,121.44Z"/><path class="cls-1" d="M84.22,386.45a3.08,3.08,0,0,0,.66-.1c4.59-2,7.24-.05,9.24,4.11,1.3,2.71,1.4,3-1.56,3.53-4.93.79-9.86,1.52-14.79,2.31-6.38,1-12.76,2-19.13,3.15A3,3,0,0,1,55,397.87c-4.15-7-4.13-6.87.67-13.3q8.8-11.77,17.36-23.73c1.41-2,2.38-2.4,3.47.11a3.49,3.49,0,0,0,.44.71c2.67,3.26,3.13,6.4-.26,9.58-1.67,1.56-1.39,3.33-.13,5.23,1.78,2.69,3.29,5.56,4.9,8.37C82.12,386,82.84,386.86,84.22,386.45Zm-21.85,3.9c4.45-.78,8.12-1.37,11.78-2.08,1-.2,1.23-1,.66-1.9l-3.23-5.13c-.42-.66-.94-1.32-1.72-.51A70.1,70.1,0,0,0,62.37,390.35Z"/><path class="cls-1" d="M334.73,63.25c.31,1.61-.48,2.13-2.31,1.3a3.7,3.7,0,0,0-1.06-.32c-4.6-.5-7.12-2.76-6.6-7.68.16-1.59-.73-2.25-2.18-2.63C319,53,315.48,52,312,50.9c-1.31-.41-2,0-2.75,1-4,5.25-4,5.16-10.48,3.37-1.91-.54-2.57-.95-1.08-2.81,7.33-9.17,14.57-18.4,21.82-27.62a2.77,2.77,0,0,1,3.31-1.16c7.81,2,7.82,1.94,8.65,9.91q.76,7.3,1.57,14.61C333.55,53.09,334.12,58,334.73,63.25ZM322.61,34.41a4.66,4.66,0,0,0-.91.58q-1.57,2.11-3.1,4.25c-4.31,6-4.29,6.06,3.09,7.36l.55.07c1.26.2,2-.18,1.75-1.62C323.42,41.62,323.69,38.08,322.61,34.41Z"/><path class="cls-1" d="M507.11,226.88c.21,1.06-.76,1.63-1.75,2.21q-15.24,8.79-30.48,17.6c-1.64,1-2.38.58-2.44-1.28a10.45,10.45,0,0,0-.17-1.1c-1.09-5.92-1.12-6,4.25-8.71,1.39-.71,1.91-1.49,1.66-3-.61-3.74-1.14-7.49-1.64-11.24-.21-1.53-.93-2.11-2.5-2.36-5.79-.94-7.39-3.15-7-9,.11-1.84,1.28-1.28,2.15-1.06,4.93,1.22,9.82,2.57,14.75,3.77,6.54,1.59,13.1,3.14,19.68,4.56,1.53.33,2.26.94,2.45,2.45C506.32,222,506.71,224.26,507.11,226.88Zm-23.63-3.82c.34,2,.7,4,1,6,.18,1.19.93,1.37,1.78.93,3-1.51,5.89-3.05,8.76-4.71,1.3-.74,1.22-1.53-.38-1.87-3.14-.68-6.29-1.38-9.44-2C483.8,221.05,483.37,221.78,483.48,223.06Z"/><path class="cls-1" d="M75.86,168.39c.13,10.28-5.7,19-14.23,20.92-8,1.77-15.05-1-20.47-7.06-5.24-5.8-5.57-12.63-2.86-19.75,1.89-5,4.59-9.29,9.71-11.56a13.78,13.78,0,0,1,8.38-1c1.27.25,1.5.72,1,1.85-.85,1.84-1.61,3.73-2.41,5.6a1.92,1.92,0,0,1-1.73,1.11c-4.83.7-7.77,3.34-8.65,7.64a10.25,10.25,0,0,0,4.79,11.22c4.1,2.5,8.22,4.36,13.32,2.46s8.54-10.93,3.68-15.22a2.31,2.31,0,0,1-.55-3.16c.65-1.33,1.14-2.73,1.73-4.09,1.07-2.49,1.71-2.6,3.61-.54C74.4,160.27,76.09,164.36,75.86,168.39Z"/><path class="cls-1" d="M485.56,157.61a16.08,16.08,0,0,1-4.1,10.9c-1.2,1.41-2.19,1.63-3-.35a20.18,20.18,0,0,0-1.57-3.24,4,4,0,0,1,0-5c2.24-3.37,1.2-6.8-.86-9.87a9.35,9.35,0,0,0-9.36-4.23c-5,.66-12,4.67-12.85,10.62s3.54,11.57,9.6,11.46c1.33,0,2.06.31,2.46,1.59a22,22,0,0,0,1.12,2.22c.59,1.3,2.31,2.65,1.39,3.91s-3.07,1.09-4.64,1c-4.36-.33-8.41-1.76-11.29-5.19-5-6-8.11-12.65-5.7-20.68,2.29-7.68,9.93-13.47,18.95-13.8,7.34-.28,13,2.81,17,11A22.71,22.71,0,0,1,485.56,157.61Z"/><path class="cls-1" d="M511.6,263.58c0,4.61-.14,9.23,0,13.84.15,3.77-2.45,2.71-4.48,2.95-2.37.28-2.48-1.05-2.42-2.84.08-2.12-.27-4.27-.07-6.37.24-2.51-1.09-3-3.09-3-8.39,0-16.78-.11-25.17-.09-1.77,0-2.17-.69-2.15-2.31.06-6.64,0-6.65,6.54-6.6,7,.06,14.05.09,21.07.21,2,0,2.91-.6,2.79-2.7-.13-2.39,0-4.81-.1-7.21-.08-1.83.43-2.85,2.5-2.54a8.61,8.61,0,0,0,2.21,0c1.76-.19,2.19.65,2.17,2.28-.09,4.81,0,9.62,0,14.42Z"/><path class="cls-1" d="M62.23,206.36c.08-.37.06-.28,0-.19-2.15,8.75-.6,7.14-8.12,5.22-9-2.3-18-4.64-27-6.89-1.87-.47-2.82-.95-2.17-3.31,1.7-6.23,1.54-6.19,7.75-4.52q14,3.75,28.05,7.25C62.1,204.24,62.56,204.66,62.23,206.36Z"/><path class="cls-1" d="M499.64,187.72c.05,1.59-1.28,1.56-2.26,1.88l-25.49,8.27c-.35.11-.7.23-1,.36-6.26,2.3-6.74,2-8.18-4.73a1.49,1.49,0,0,1,1.16-2.05q15.84-5.28,31.68-10.61c1.33-.45,2.05-.11,2.41,1.31C498.4,184,499.05,185.85,499.64,187.72Z"/><path class="cls-1" d="M508.67,295.38c-.27,6.58-.54,6.7-6.87,5.68q-13.94-2.26-27.92-4.18c-2.27-.31-2.88-1.06-2.55-3.34.85-5.84.74-5.85,6.48-5,9.3,1.46,18.61,2.9,27.9,4.43C507.07,293.24,509.23,292.89,508.67,295.38Z"/><path class="cls-2" d="M206.12,281.56c0-23.89-.21-47.78.06-71.67.28-25.09.1-50.18.21-75.27.05-12.74.25-25.49.21-38.24,0-2.54.74-3.53,3.25-4.38a162.27,162.27,0,0,1,40.39-7.89,181.36,181.36,0,0,1,27.67.28,158.75,158.75,0,0,1,39,7.81c6,2.06,5.93,2.1,6.06,8.52.37,18.37.37,36.74.2,55.11-.07,7.93,0,15.87.07,23.8,0,1.74-.36,2.55-2.28,2.49-4.35-.13-8.7-.18-13.05-.11-1.85,0-2.59-.39-2.58-2.45.13-23,.1-45.93.28-68.89,0-2.72-.75-3.93-3.41-4.54a194.42,194.42,0,0,0-30.94-4.5c-13.47-.88-26.72.63-39.92,3-4.95.87-4.85.9-5,6.89-.79,31.26-.37,62.53-.48,93.79-.09,26.11.13,52.23-.11,78.34-.41,44.44-.45,88.88-.6,133.32,0,2.83.71,4,3.56,4.55,16.21,3.14,32.47,4.77,49,3.34,8.39-.72,16.62-2.23,24.87-3.76,2.19-.4,1.81-1.91,1.85-3.08.14-4.34.05-8.7.07-13.05,0-7.46.08-14.93.08-22.4,0-12.77.05-25.54-.05-38.3,0-5.55,0-6.08-6.83-5.43-3.62.35-7.22.13-10.82.13-6.44,0-12.88,0-19.32-.09-5.82-.07-11.64-.25-17.46-.32-1.27,0-1.6-.67-1.59-1.73,0-5.18,0-10.36.09-15.54,0-2,1.39-2.29,3.08-2.23,10,.33,20.06.16,30.09.44,12.76.37,25.54.19,38.32.15,2.25,0,3.19.13,3.15,3.06-.28,23-.28,46-.32,69.06,0,12.59,0,25.18.13,37.76,0,2.73-.7,4-3.45,4.88a168.56,168.56,0,0,1-35.12,7.5,188.1,188.1,0,0,1-24.08,1.1c-16.86-.58-33.44-2.82-49.49-8.26-5.19-1.76-5.17-1.73-5.16-7.3q.1-57.93.17-115.85,0-15,0-30Z"/><path class="cls-2" d="M331.93,97.41c6.21,2.76,12.05,5.69,17.83,8.77a165.38,165.38,0,0,1,46.08,36.44,182.12,182.12,0,0,1,28.69,43.63,185.91,185.91,0,0,1,14.93,44.83A173.38,173.38,0,0,1,441.32,285c-2.26,18-6.7,35.42-14.48,51.83-2.47,5.22-4.93,10.48-7.8,15.52-.87,1.52-1.46,1.95-3.14.85-3.62-2.37-7.43-4.48-11.2-6.63-1.61-.92-1.9-1.79-.9-3.53a151.93,151.93,0,0,0,19.33-57.67,75.56,75.56,0,0,0,1-8.5c0-2-.29-2.95-2.67-2.95-17.78,0-35.56-.2-53.34-.32-5,0-10,.05-15-.11-2.26-.07-3.11.56-3.1,3,0,9.23-.16,18.47-.2,27.71q-.17,36.76-.25,73.51c0,13.85,0,27.71,0,41.56a3.35,3.35,0,0,1-1.95,3.38c-4.59,2.15-9.18,4.32-13.73,6.57-2.15,1.06-2.72.29-2.71-1.83q.09-17.37.08-34.73.09-73.2.18-146.41c0-37.69,0-75.38.23-113.07C331.74,121.36,331.75,109.62,331.93,97.41Zm55.25,158.25v.1c11.3,0,22.6-.08,33.9.06,2.55,0,3.29-.64,3.15-3.22-1.23-21.66-7.48-42-16.85-61.34a157.11,157.11,0,0,0-22.91-34.6,160.35,160.35,0,0,0-32.21-28.61c-.59-.4-1.23-1.1-2-.76-1,.44-.52,1.46-.51,2.23.14,18.6-.18,37.19.2,55.79.27,13.52,0,27.05,0,40.57,0,8.79-.08,17.59-.06,26.39,0,1.64-.38,3.48,2.55,3.45C364,255.57,375.61,255.66,387.18,255.66Z"/><path class="cls-2" d="M180.82,347.09V274.85c0-3.41-.2-3.63-3.54-3.63-20.35,0-40.7,0-61,0-3,0-6-.29-9.1-.06-3.6.27-4,.36-3.67,4.08a164.36,164.36,0,0,0,4.61,27.59,161,161,0,0,0,14.44,36.54c1.9,3.49,1.79,3.58-1.56,5.46s-6.59,3.76-9.81,5.76c-1.67,1-2.76,1-3.72-.91-5-10.3-10-20.6-13.6-31.55a186.66,186.66,0,0,1-8.93-56.79,160.41,160.41,0,0,1,1.85-22.94A178.92,178.92,0,0,1,100,191.56a182.4,182.4,0,0,1,31.82-50.11,168.65,168.65,0,0,1,25.06-22.67c11.85-8.81,24.81-15.59,38.28-21.51,2-.86,2.3-.42,2.38,1.56.61,14.16.15,28.32.22,42.48.06,13.23-.06,26.45-.07,39.68q0,18.94,0,37.89c0,17.35.15,34.7.12,52.05,0,10.05-.51,20.1-.28,30.14.24,10.59.12,21.19,0,31.77-.15,15.63-.14,31.27-.22,46.9s0,31.3,0,46.95c0,3.1-.19,3.21-3.07,1.86-3.6-1.68-7.2-3.35-10.86-4.88-2.16-.91-2.94-2.22-2.93-4.64.1-24,.06-48,.06-71.94Zm-.15-157.62h.1q0-31,0-61.95c0-.79.41-1.84-.35-2.33s-1.77.11-2.53.63c-3.28,2.25-6.64,4.4-9.79,6.81a167,167,0,0,0-31,30.74,165.78,165.78,0,0,0-33.67,86.93c-.29,3.5,0,3.93,3.52,3.69,3.29-.22,6.61-.15,9.91-.16,20.61,0,41.22.1,61.83.26,1.95,0,2-.92,2-2.39Q180.65,220.59,180.67,189.47Z"/><path class="cls-2" d="M34,236.44c-.21,2.32-.49,5-.7,7.65-.12,1.58-.78,2.37-2.46,2.14-1.83-.25-3.67-.41-5.51-.58-1.2-.11-1.55-.84-1.42-1.92.42-3.48.7-7,1.35-10.43.46-2.46,2.65-3.59,5.34-3.16,2.42.38,3.4,2,3.4,4.29Z"/><path class="cls-2" d="M480.56,321.75a16.67,16.67,0,0,1,10.08,3.31,10.39,10.39,0,0,1,3.54,12.37,10.9,10.9,0,0,1-11,6.89,18.31,18.31,0,0,1-8.84-2.91c-4.45-3.13-5.86-7.61-4.06-13.21C471.59,324.18,475.56,321.69,480.56,321.75Z"/><path class="cls-2" d="M247.49,38.21c0,6.17-3.41,10.33-8.94,11.2s-10.18-2-12.07-7.45c-2.39-6.82-.6-15.91,8.4-17.18,5-.72,10.58,2.52,11.84,7.68A17.9,17.9,0,0,1,247.49,38.21Z"/><path class="cls-2" d="M424.07,116.46c-.07-6.15,7.27-13.06,13.86-13,5.4,0,10.93,5.29,11,10.5.08,6.22-7.32,13.36-13.91,13.4A11,11,0,0,1,424.07,116.46Z"/><path class="cls-2" d="M75.55,121.44c3.88.61,7.25,2.06,10.73,3.12a.88.88,0,0,1,.56,1.32,2.42,2.42,0,0,1-.4.72c-1.47,1.74-2.32,4.86-4.4,5-1.91.12-2.63-3-3.73-4.76C77.31,125.24,76,123.77,75.55,121.44Z"/><path class="cls-2" d="M62.37,390.35a70.1,70.1,0,0,1,7.49-9.62c.78-.81,1.3-.15,1.72.51l3.23,5.13c.57.92.37,1.7-.66,1.9C70.49,389,66.82,389.57,62.37,390.35Z"/><path class="cls-2" d="M322.61,34.41c1.08,3.67.81,7.21,1.38,10.64.24,1.44-.49,1.82-1.75,1.62l-.55-.07c-7.38-1.3-7.4-1.33-3.09-7.36q1.53-2.13,3.1-4.25A4.66,4.66,0,0,1,322.61,34.41Z"/><path class="cls-2" d="M483.48,223.06c-.11-1.28.32-2,1.73-1.7,3.15.67,6.3,1.37,9.44,2,1.6.34,1.68,1.13.38,1.87-2.87,1.66-5.81,3.2-8.76,4.71-.85.44-1.6.26-1.78-.93C484.18,227.06,483.82,225.06,483.48,223.06Z"/><path class="cls-1" d="M387.18,255.66c-11.57,0-23.15-.09-34.72.06-2.93,0-2.54-1.81-2.55-3.45,0-8.8,0-17.6.06-26.39,0-13.52.27-27,0-40.57-.38-18.6-.06-37.19-.2-55.79,0-.77-.48-1.79.51-2.23.75-.34,1.39.36,2,.76a160.35,160.35,0,0,1,32.21,28.61,157.11,157.11,0,0,1,22.91,34.6c9.37,19.38,15.62,39.68,16.85,61.34.14,2.58-.6,3.25-3.15,3.22-11.3-.14-22.6-.06-33.9-.06Z"/><path class="cls-1" d="M180.67,189.47q0,31.13,0,62.23c0,1.47-.05,2.41-2,2.39-20.61-.16-41.22-.3-61.83-.26-3.3,0-6.62-.06-9.91.16-3.49.24-3.81-.19-3.52-3.69a165.78,165.78,0,0,1,33.67-86.93,167,167,0,0,1,31-30.74c3.15-2.41,6.51-4.56,9.79-6.81.76-.52,1.66-1.21,2.53-.63s.35,1.54.35,2.33q0,31,0,62Z"/></g></g></svg>